<svg width="21" height="22" viewBox="0 0 21 22" fill="none" xmlns="http://www.w3.org/2000/svg">
<path fill-rule="evenodd" clip-rule="evenodd" d="M14.5137 20.5H6.16592C3.09955 20.5 0.747152 19.3924 1.41534 14.9348L2.19338 8.89359C2.60528 6.66934 4.02404 5.81808 5.26889 5.81808H15.4474C16.7105 5.81808 18.0469 6.73341 18.5229 8.89359L19.3009 14.9348C19.8684 18.889 17.5801 20.5 14.5137 20.5Z" stroke="#020105" stroke-width="1.5" stroke-linecap="round" stroke-linejoin="round"/>
<path d="M14.651 5.5984C14.651 3.21232 12.7167 1.27803 10.3306 1.27803V1.27803C9.18162 1.27316 8.078 1.72619 7.26381 2.53695C6.44963 3.3477 5.99193 4.44939 5.99194 5.5984H5.99194" stroke="#020105" stroke-width="1.5" stroke-linecap="round" stroke-linejoin="round"/>
<path d="M13.2963 10.1018H13.2506" stroke="#020105" stroke-width="1.5" stroke-linecap="round" stroke-linejoin="round"/>
<path d="M7.46566 10.1018H7.41989" stroke="#020105" stroke-width="1.5" stroke-linecap="round" stroke-linejoin="round"/>
</svg>
