<svg width="24" height="24" viewBox="0 0 24 24" fill="none" xmlns="http://www.w3.org/2000/svg">
<g clip-path="url(#clip0_8101_22680)">
<path fill-rule="evenodd" clip-rule="evenodd" d="M20.9066 6.56731C22.0608 6.56731 23 7.47838 23 8.59822C23 9.56872 22.2945 10.3818 21.3551 10.5816C21.1323 12.3651 20.6605 14.6154 19.6625 16.1462V18.0213C19.6625 18.3685 19.3724 18.65 19.0147 18.65H4.98535C4.62751 18.65 4.33746 18.3685 4.33746 18.0213V16.1462C3.33944 14.6154 2.86763 12.365 2.6449 10.5816C1.70546 10.3819 1 9.56872 1 8.59822C1 7.47838 1.9391 6.56731 3.09339 6.56731C4.24766 6.56731 5.18677 7.47838 5.18677 8.59822C5.18677 9.13656 4.96924 9.62637 4.61542 9.99015C5.24468 10.6731 6.15844 11.1041 7.17458 11.1041C8.81947 11.1041 10.1972 9.97598 10.5305 8.4756C10.1458 8.1071 9.90661 7.59562 9.90661 7.03091C9.90661 5.91107 10.8457 5 12 5C13.1543 5 14.0934 5.91107 14.0934 7.03091C14.0934 7.59562 13.8544 8.1071 13.4695 8.4756C13.8029 9.97598 15.1805 11.1041 16.8255 11.1041C17.8416 11.1041 18.7553 10.6731 19.3845 9.99015C19.0307 9.62637 18.8134 9.13656 18.8134 8.59822C18.8134 7.47838 19.7523 6.56731 20.9066 6.56731ZM20.9069 7.82456C20.4671 7.82456 20.1092 8.17172 20.1092 8.59836C20.1092 9.025 20.4671 9.372 20.9069 9.372C21.3468 9.372 21.7048 9.025 21.7048 8.59836C21.7048 8.17172 21.3468 7.82456 20.9069 7.82456ZM11.2024 7.03076C11.2024 6.60412 11.5604 6.25695 12.0002 6.25695C12.4401 6.25695 12.7979 6.60412 12.7979 7.03076C12.7979 7.4574 12.4401 7.8044 12.0002 7.8044C11.5604 7.8044 11.2024 7.4574 11.2024 7.03076ZM3.09405 7.82456C2.65416 7.82456 2.2962 8.17172 2.2962 8.59836C2.2962 9.025 2.65416 9.372 3.09405 9.372C3.53394 9.372 3.89173 9.025 3.89173 8.59836C3.89173 8.17172 3.53394 7.82456 3.09405 7.82456ZM5.63327 17.3923V16.5875H18.3668V17.3923H5.63327ZM5.34248 15.3308H18.6596C19.3426 14.2073 19.7341 12.6308 19.9586 11.2081C19.1238 11.9256 18.0265 12.3615 16.8264 12.3615C14.6725 12.3615 12.8508 10.9574 12.2816 9.04321C12.1898 9.05526 12.0961 9.06194 12.001 9.06194C11.9058 9.06194 11.8121 9.05526 11.7203 9.04321C11.1511 10.9574 9.32933 12.3615 7.17553 12.3615C5.97576 12.3615 4.87905 11.9259 4.04435 11.2091C4.26893 12.632 4.66052 14.2086 5.34248 15.3308Z" fill="#727474"/>
</g>
<defs>
<clipPath id="clip0_8101_22680">
<rect width="22" height="14" fill="white" transform="translate(1 5)"/>
</clipPath>
</defs>
</svg>
