<svg width="20" height="20" viewBox="0 0 20 20" fill="none" xmlns="http://www.w3.org/2000/svg">
<path d="M17.0125 3.53333C17.4875 3.53333 17.8458 3.95 17.6541 4.725L15.3291 15.6833C15.1666 16.4625 14.6958 16.65 14.0458 16.2875L8.49996 12.1917C8.47845 12.1762 8.46093 12.1559 8.44884 12.1324C8.43675 12.1088 8.43045 12.0827 8.43045 12.0563C8.43045 12.0298 8.43675 12.0037 8.44884 11.9801C8.46093 11.9566 8.47845 11.9363 8.49996 11.9208L14.9041 6.1375C15.1958 5.87917 14.8416 5.75417 14.4583 5.9875L6.42079 11.0583C6.39641 11.0742 6.36874 11.0844 6.33986 11.088C6.31098 11.0916 6.28166 11.0886 6.25412 11.0792L2.84162 10C2.08329 9.77917 2.08329 9.25833 3.01246 8.8875L16.6666 3.62083C16.7749 3.56888 16.8925 3.53913 17.0125 3.53333V3.53333Z" stroke="#020105" stroke-width="0.6" stroke-linecap="round" stroke-linejoin="round"/>
</svg>
